# xmcd
#
# Track frame offsets:
#	150
#	16355
#	35334
#	51171
#	63586
#	75222
#	89010
#	101306
#	113841
#	131059
#
# Disc length: 1897 seconds
#
# Revision: 0
# Processed by: cddbd v1.5.2PL0 Copyright (c) Steve Scherf et al.
# Submitted via: EasyCDDAExtractor 16.0.1.1
#
DISCID=7907670a
DTITLE=Kimberly Connolly
DYEAR=2007
DGENRE=Country
TTITLE0=Counting Teardrops
TTITLE1=Ten Bucks At A Time
TTITLE2=Cruel Intentions
TTITLE3=Don't Break My Heart Again
TTITLE4=You're Nobody's Fool But Your Own
TTITLE5=No Flowers
TTITLE6=I'll Change My Ways
TTITLE7=A Little Bit Of Love Will Do
TTITLE8=There's No Room Left
TTITLE9=Where My Heart Belongs
EXTD=
EXTT0=
EXTT1=
EXTT2=
EXTT3=
EXTT4=
EXTT5=
EXTT6=
EXTT7=
EXTT8=
EXTT9=
PLAYORDER=
